<svg width="68" height="68" viewBox="0 0 68 68" fill="none" xmlns="http://www.w3.org/2000/svg">
<circle cx="34" cy="34" r="34" fill="#172E5E"/>
<path d="M51.7053 23.2816L34.3079 14.8829C34.1537 14.8085 33.9741 14.8085 33.8199 14.8829L16.4225 23.2816C16.2285 23.3752 16.1052 23.5717 16.1052 23.7871V44.184C16.1052 44.3994 16.2285 44.5958 16.4225 44.6895L33.8198 53.0882C33.8969 53.1254 33.9804 53.144 34.0639 53.144C34.1473 53.144 34.2308 53.1254 34.3079 53.0882L51.7053 44.6895C51.8993 44.5958 52.0225 44.3994 52.0225 44.184V23.7871C52.0225 23.5716 51.8992 23.3753 51.7053 23.2816ZM34.0639 16.0117L50.1702 23.7871L45.5013 26.041C45.4718 26.0185 45.4405 25.9977 45.4063 25.9812L29.4093 18.2587L34.0639 16.0117ZM28.1417 18.8933L44.2247 26.6574L40.9307 28.2476L24.8544 20.4866L28.1417 18.8933ZM44.6009 27.7222V33.6004L41.5241 35.0858V29.2076L44.6009 27.7222ZM50.9 43.8318L34.6252 51.6884V32.5381L38.5072 30.664C38.7864 30.5292 38.9034 30.1937 38.7686 29.9145C38.6338 29.6354 38.2983 29.5182 38.0191 29.6531L34.0639 31.5625L32.5075 30.8112C32.2283 30.6762 31.8928 30.7934 31.758 31.0726C31.6233 31.3517 31.7403 31.6873 32.0195 31.8221L33.5026 32.5381V51.6884L17.2278 43.8317V24.6813L29.6209 30.6642C29.6996 30.7022 29.7827 30.7202 29.8645 30.7202C30.0732 30.7202 30.2736 30.6033 30.3703 30.4028C30.5051 30.1236 30.3881 29.7881 30.1089 29.6533L17.9575 23.7871L23.5333 21.0953L40.3938 29.2349C40.3963 29.2383 40.399 29.2414 40.4016 29.2448V35.9801C40.4016 36.1732 40.5009 36.3528 40.6645 36.4555C40.7553 36.5125 40.859 36.5413 40.9629 36.5413C41.0462 36.5413 41.1296 36.5229 41.2069 36.4855L45.4063 34.4582C45.6002 34.3646 45.7235 34.1682 45.7235 33.9528V27.1804L50.9 24.6814V43.8318V43.8318Z" fill="white"/>
<path d="M21.8598 41.6549L19.3067 40.4224C19.0274 40.2874 18.692 40.4046 18.5572 40.6838C18.4224 40.9629 18.5394 41.2985 18.8186 41.4333L21.3717 42.6658C21.4503 42.7038 21.5335 42.7217 21.6153 42.7217C21.8239 42.7217 22.0243 42.6048 22.1211 42.4044C22.256 42.1251 22.1389 41.7897 21.8598 41.6549Z" fill="white"/>
<path d="M24.2095 40.1254L19.3103 37.7602C19.0311 37.6254 18.6956 37.7424 18.5608 38.0217C18.4261 38.3008 18.5431 38.6364 18.8223 38.7712L23.7215 41.1363C23.8002 41.1743 23.8833 41.1923 23.9651 41.1923C24.1738 41.1923 24.3742 41.0754 24.471 40.8749C24.6057 40.5956 24.4887 40.2601 24.2095 40.1254Z" fill="white"/>
</svg>
