<svg width="68" height="68" viewBox="0 0 68 68" fill="none" xmlns="http://www.w3.org/2000/svg">
<circle cx="34" cy="34" r="34" fill="#172E5E"/>
<path d="M52.0225 31.1673H50.7208L48.7806 32.1882C48.5622 32.0677 48.3351 31.9656 48.0901 31.9042L45.6495 31.2935V31.016C46.7292 30.2624 47.388 29.0175 47.388 27.6914V26.6788C47.388 24.4283 45.6246 22.545 43.4573 22.4793C43.3473 22.4765 43.2389 22.4805 43.13 22.4859L43.7628 21.0045L40.6951 17.9376L38.8868 19.1146C38.1997 18.7277 37.473 18.4264 36.7183 18.2151L36.2716 16.1052H31.8567L31.41 18.2157C30.6553 18.427 29.9281 18.7282 29.2416 19.1152L27.4332 17.9382L24.368 21.0033L24.9901 22.4859C24.9663 22.4847 24.9437 22.4805 24.9199 22.4799C23.8105 22.4477 22.7656 22.8524 21.9719 23.623C21.177 24.3929 20.7397 25.4263 20.7397 26.5328V27.6914C20.7397 29.0175 21.3979 30.2619 22.4776 31.0154V31.2935L20.8857 31.6915L18.0001 30.0087H16.1052V42.0127L21.8044 43.9122H22.9144L23.053 43.4268L24.8 44.4753C24.8286 45.4252 25.5903 46.1895 26.5393 46.2229C26.5727 47.168 27.3322 47.9275 28.2773 47.9608C28.3106 48.9059 29.0701 49.6654 30.0152 49.6988C30.0497 50.6659 30.8417 51.4432 31.8168 51.4432C32.1788 51.4432 32.5338 51.3303 32.8323 51.1292L33.3454 51.5824C33.667 51.8655 34.0811 52.0225 34.5111 52.0225H34.6183C35.5823 52.0225 36.3667 51.2432 36.3789 50.2823C37.3324 50.2702 38.1046 49.4979 38.1168 48.5444C39.0709 48.5322 39.8437 47.7589 39.8547 46.8048C40.8176 46.7821 41.5949 45.9955 41.5949 45.0272C41.5949 44.969 41.5921 44.9115 41.5861 44.8535L52.0225 39.6358V31.1673ZM46.2294 26.6788V27.6914C46.2294 28.7197 45.6739 29.6803 44.7794 30.1982L44.4898 30.3657L44.492 32.1989L47.3863 32.9219L41.0156 36.275V34.7145C41.0156 33.9357 40.7011 33.2226 40.186 32.6956L42.1742 32.1989V30.3643L41.8851 30.1971C40.9913 29.6803 40.4363 28.7197 40.4363 27.6914V26.5328C40.4363 25.7428 40.7486 25.0039 41.3163 24.4538C41.8834 23.9039 42.6359 23.6074 43.4225 23.638C44.9701 23.6844 46.2294 25.0486 46.2294 26.6788ZM34.9374 35.8196L32.3149 34.9815C31.1198 34.5985 29.8262 34.5414 28.6028 34.8123L28.2708 34.8859V34.7145C28.2708 33.9156 28.8124 33.2221 29.5869 33.028L32.9052 32.1989V30.3643L32.6162 30.1971C31.7223 29.6803 31.1673 28.7197 31.1673 27.6914V26.5328C31.1673 25.7428 31.4796 25.0039 32.0473 24.4538C32.6145 23.9039 33.3717 23.6074 34.1535 23.638C35.7011 23.6844 36.9604 25.0486 36.9604 26.6788V27.6914C36.9604 28.7197 36.4049 29.6803 35.5105 30.1982L35.2208 30.3657L35.2231 32.1989L38.5408 33.028C39.3153 33.2221 39.857 33.9156 39.857 34.7145V36.8852L39.7139 36.9604H39.3589L35.7973 35.9427C35.5167 35.8632 35.2276 35.8307 34.9374 35.8196V35.8196ZM28.4006 24.7757C29.4885 22.6677 31.6782 21.319 34.0639 21.319C36.4269 21.319 38.6073 22.6496 39.7034 24.729C39.4276 25.282 39.2777 25.8944 39.2777 26.5328V27.6914C39.2777 29.0175 39.9359 30.2619 41.0156 31.0154V31.2935L38.6984 31.8736L36.3806 31.2935V31.016C37.4603 30.2624 38.119 29.0175 38.119 27.6914V26.6788C38.119 24.4283 36.3557 22.545 34.1883 22.4793C33.0795 22.4468 32.034 22.8519 31.2403 23.6224C30.446 24.3929 30.0087 25.4263 30.0087 26.5328V27.6914C30.0087 29.0175 30.6669 30.2619 31.7466 31.0154V31.2935L29.4294 31.8736L27.1116 31.2935V31.016C28.1913 30.2624 28.8501 29.0175 28.8501 27.6914V26.6788C28.8501 25.9971 28.686 25.3499 28.4006 24.7757V24.7757ZM25.7363 21.2721L27.5871 19.4213L29.2161 20.4815L29.5278 20.2902C30.3088 19.8116 31.1529 19.4612 32.0363 19.2499L32.3927 19.1644L32.7958 17.2638H35.3325L35.7345 19.1639L36.0909 19.249C36.9743 19.4606 37.8184 19.8111 38.5994 20.2897L38.9111 20.4809L40.5401 19.4207L42.3886 21.2698L41.7315 22.8083C41.2843 23.0007 40.8696 23.2714 40.5087 23.6213C40.4849 23.6445 40.4646 23.6694 40.4414 23.6931C39.0766 21.5235 36.6637 20.1604 34.0639 20.1604C31.4454 20.1604 29.0257 21.5363 27.6643 23.7279C27.3 23.3466 26.8666 23.0377 26.3863 22.8219L25.7363 21.2721ZM23.6363 32.1989V30.3643L23.3472 30.1971C22.4533 29.6803 21.8983 28.7197 21.8983 27.6914V26.5328C21.8983 25.7428 22.2106 25.0039 22.7783 24.4538C23.3455 23.9039 24.0996 23.6074 24.8846 23.638C26.4321 23.6844 27.6914 25.0486 27.6914 26.6788V27.6914C27.6914 28.7197 27.1359 29.6803 26.2415 30.1982L25.9518 30.3657L25.9541 32.1989L27.9418 32.6956C27.4267 33.2226 27.1121 33.9357 27.1121 34.7145V35.1436L25.3052 35.5452L25.3521 35.3812L25.3742 34.3105L22.319 32.5282L23.6363 32.1989ZM17.2638 31.1673H17.6862L21.8525 33.5974L19.7502 42.0062L17.2638 41.1771V31.1673ZM21.9922 42.7535L20.852 42.3736L22.8943 34.2053L24.2156 34.9758V35.1413L22.0409 42.7535H21.9922ZM25.9535 44.4213C25.9535 44.2505 26.0225 44.083 26.1436 43.9619L27.1619 42.9436C27.283 42.8226 27.4504 42.7535 27.6213 42.7535C27.9794 42.7535 28.2708 43.0449 28.2708 43.403C28.2708 43.5739 28.2017 43.7413 28.0807 43.8624L27.0624 44.8807C26.9413 45.0018 26.7738 45.0708 26.603 45.0708C26.2449 45.0708 25.9535 44.7794 25.9535 44.4213ZM27.6914 46.1593C27.6914 45.9884 27.7605 45.8209 27.8815 45.6999L28.8999 44.6816C29.0209 44.5605 29.1884 44.4915 29.3592 44.4915C29.7173 44.4915 30.0087 44.7828 30.0087 45.1409C30.0087 45.3118 29.9397 45.4792 29.8186 45.6003L28.8003 46.6186C28.6792 46.7397 28.5118 46.8087 28.3409 46.8087C27.9828 46.8087 27.6914 46.5174 27.6914 46.1593ZM29.4294 47.8972C29.4294 47.7263 29.4984 47.5589 29.6195 47.4378L30.6378 46.4195C30.7589 46.2984 30.9263 46.2294 31.0972 46.2294C31.4553 46.2294 31.7466 46.5208 31.7466 46.8789C31.7466 47.0497 31.6776 47.2172 31.5565 47.3382L30.5382 48.3566C30.4172 48.4776 30.2497 48.5467 30.0788 48.5467C29.7207 48.5467 29.4294 48.2553 29.4294 47.8972ZM31.8168 50.2846C31.4587 50.2846 31.1673 49.9932 31.1673 49.6351C31.1673 49.4643 31.2363 49.2968 31.3574 49.1757L32.3757 48.1574C32.4968 48.0364 32.6642 47.9673 32.8351 47.9673C33.1932 47.9673 33.4846 48.2587 33.4846 48.6168C33.4846 48.7877 33.4155 48.9551 33.2945 49.0762L32.2762 50.0945C32.1551 50.2156 31.9876 50.2846 31.8168 50.2846ZM34.6183 50.8639H34.5111C34.3634 50.8639 34.222 50.8102 34.112 50.7126L33.6786 50.3304L34.1137 49.8954C34.2689 49.7401 34.3895 49.5554 34.4786 49.3571L35.0053 49.7955C35.143 49.9104 35.2225 50.0795 35.2225 50.2597C35.2225 50.5929 34.9515 50.8639 34.6183 50.8639V50.8639ZM39.8134 45.6501H39.7133C39.5679 45.6501 39.4259 45.5986 39.3147 45.5053L36.1732 42.8873L35.431 43.7778L38.4817 46.3196C38.6189 46.4345 38.6984 46.6036 38.6984 46.7838C38.6984 47.117 38.4274 47.388 38.0942 47.388H37.9677C37.8271 47.388 37.6897 47.3382 37.5813 47.2477L34.4347 44.6258L33.6925 45.5163L36.7432 48.0584C36.8809 48.1724 36.9604 48.3416 36.9604 48.5218C36.9604 48.855 36.6894 49.126 36.3562 49.126C36.1339 49.126 35.9172 49.047 35.7466 48.9053L34.4537 47.8276C34.1688 47.2455 33.5836 46.8396 32.8982 46.8152C32.8648 45.8702 32.1053 45.1107 31.1602 45.0773C31.1269 44.1322 30.3674 43.3727 29.4223 43.3394C29.3884 42.3722 28.5963 41.5949 27.6213 41.5949C27.1452 41.5949 26.6794 41.7878 26.3427 42.1244L25.3244 43.1428C25.2636 43.2036 25.2133 43.2726 25.1621 43.3411L23.3825 42.2732L24.9425 36.8133L28.8535 35.9438C29.8794 35.7144 30.9611 35.7642 31.9616 36.0844L32.815 36.3574L29.9219 37.8039C29.2608 38.1352 28.8501 38.8002 28.8501 39.5396V39.6542C28.8501 40.7243 29.7207 41.5949 30.7908 41.5949C31.1424 41.5949 31.4884 41.4993 31.7891 41.318L33.9462 40.0244C34.3796 39.7648 34.9611 39.8216 35.3354 40.1582L40.2301 44.5633C40.3611 44.6821 40.4363 44.8507 40.4363 45.0272C40.4363 45.3709 40.1571 45.6501 39.8134 45.6501V45.6501ZM50.8639 38.9196L41.1041 43.7999C41.0725 43.7662 41.0394 43.7342 41.0046 43.7031L36.1107 39.298C35.6819 38.9111 35.1275 38.6984 34.5498 38.6984C34.1275 38.6984 33.7128 38.8132 33.3496 39.031L31.1916 40.3251C31.0706 40.3981 30.9323 40.4363 30.7908 40.4363C30.3592 40.4363 30.0087 40.0858 30.0087 39.6542V39.5396C30.0087 39.2412 30.1745 38.9736 30.4409 38.8404L33.6724 37.2246C34.2254 36.9477 34.8819 36.8858 35.4779 37.0572L39.1184 38.097L40.0001 38.119L50.8639 32.4012V38.9196Z" fill="white"/>
</svg>
