<svg width="68" height="68" viewBox="0 0 68 68" fill="none" xmlns="http://www.w3.org/2000/svg">
<circle cx="34" cy="34" r="34" fill="#172E5E"/>
<path d="M51.6006 26.9829L49.7938 23.4785C49.7122 23.3201 49.5733 23.1988 49.4055 23.1391L44.7058 21.4664C44.6404 21.4431 44.5738 21.4305 44.5079 21.427L43.8278 20.5572C42.755 19.185 41.1433 18.3263 39.406 18.2014L36.9439 18.0244C36.7381 18.0095 36.54 18.0867 36.3981 18.2286C36.3979 18.2284 36.3977 18.2283 36.3976 18.2281L31.2818 23.3441C28.745 25.8811 27.9838 29.666 29.3425 32.9865L30.8448 36.658L24.1447 43.3584L24.4878 41.1545C24.8565 38.7853 23.4697 36.5266 21.1902 35.7835L17.6854 34.6411C17.1487 34.4662 16.5884 34.6709 16.2907 35.1503C15.9931 35.6297 16.0582 36.2229 16.453 36.6263L18.091 38.2999C19.2563 39.4908 20.2085 40.8581 20.9209 42.3641L22.2755 45.2276L18.8281 48.6752C18.5542 48.9491 18.5542 49.3934 18.8281 49.6673C18.9651 49.8043 19.1446 49.8728 19.3241 49.8728C19.5037 49.8728 19.6832 49.8042 19.8202 49.6673L26.2002 43.287L29.0634 44.6417C29.4138 44.8073 29.832 44.6578 29.9976 44.3075C30.1633 43.9574 30.0137 43.539 29.6635 43.3733L28.417 42.7837L30.4891 42.4611C32.174 42.1991 33.7814 43.1855 34.3099 44.8072L35.1994 47.5362L34.109 46.469C33.8321 46.1979 33.3879 46.2027 33.1169 46.4796C32.8459 46.7565 32.8507 47.2007 33.1276 47.4717L34.8012 49.1098C35.0359 49.3395 35.3347 49.4576 35.6382 49.4576C35.8563 49.4576 36.0766 49.3966 36.2771 49.2721C36.7565 48.9745 36.9612 48.414 36.7863 47.8774L35.644 44.3724C34.901 42.0928 32.6426 40.7059 30.2733 41.0747L28.0695 41.4177L31.6945 37.7925L35.8478 39.4922C36.9412 39.9396 38.0847 40.1572 39.2177 40.1572C41.5254 40.1572 43.7884 39.2543 45.49 37.5528L50.6058 32.4367C50.8312 32.2113 50.8706 31.871 50.7252 31.6047C52.0086 30.4735 52.4166 28.5655 51.6006 26.9829ZM23.1013 40.9387L22.7788 43.0107L22.1892 41.7643C21.4098 40.1169 20.3684 38.6212 19.0938 37.3187L18.0265 36.2282L20.7553 37.1177C22.3769 37.6463 23.3636 39.2532 23.1013 40.9387ZM44.5583 25.2143C45.0024 25.1565 45.4246 25.3383 45.6881 25.7001C45.9516 26.0619 45.995 26.5198 45.804 26.9246C45.6331 27.287 45.2947 27.54 44.9032 27.6011L43.6576 27.7873C43.5833 27.7984 43.5135 27.8211 43.4496 27.8528C43.1688 27.8399 42.8869 27.8393 42.6047 27.8519L41.5296 25.6073L44.5583 25.2143ZM42.7501 22.2013C43.3009 22.2695 43.7805 22.6052 44.0329 23.0996L44.4011 23.8207C44.3933 23.8216 44.3855 23.8219 44.3777 23.8229L41.248 24.229C41.1358 24.2436 41.0336 24.2845 40.9458 24.3439C40.7924 23.8477 40.8769 23.3172 41.1888 22.8837C41.5508 22.3802 42.1346 22.1252 42.7501 22.2013ZM37.2845 19.4556L39.3053 19.6009C40.3663 19.6771 41.3656 20.1087 42.1478 20.8093C41.4495 20.8958 40.8094 21.2192 40.3191 21.7391C40.3129 21.7449 40.3063 21.7501 40.3003 21.7561L37.3067 24.7498C36.3783 23.1096 36.3637 21.1186 37.2845 19.4556ZM31.2285 33.8911L30.641 32.4552C29.4969 29.6593 30.1379 26.4724 32.2739 24.3363L35.2351 21.3749C35.0732 22.9123 35.4391 24.4852 36.325 25.8332C36.6347 26.3045 36.7147 26.8833 36.5445 27.4208C36.3743 27.9585 35.976 28.3857 35.4515 28.593C33.1661 29.496 31.5852 31.516 31.2285 33.8911ZM44.4976 36.5607C42.3616 38.6969 39.1749 39.3378 36.3792 38.1937L33.4759 37.0055L35.1685 36.2162C35.391 36.1125 35.6122 35.9983 35.8259 35.8768C36.1627 35.6853 36.2805 35.2571 36.0889 34.9201C35.8976 34.5834 35.4692 34.4656 35.1323 34.6571C34.9513 34.76 34.764 34.8567 34.5755 34.9445L32.5486 35.8896L32.5547 34.8833C32.5679 32.6685 33.9074 30.7116 35.9671 29.8977C36.886 29.5346 37.584 28.7861 37.8821 27.8441C38.0644 27.2683 38.082 26.6658 37.9449 26.0957L39.5377 24.5028C39.5889 24.7348 39.6659 24.9643 39.7727 25.1872L41.1375 28.0368C39.9821 28.2949 39.0462 29.1457 38.6845 30.2776C38.5233 30.7818 38.3097 31.2712 38.0494 31.7318C37.8588 32.0692 37.9778 32.4972 38.3151 32.6877C38.4241 32.7493 38.5426 32.7786 38.6595 32.7786C38.9042 32.7786 39.1419 32.6503 39.2709 32.422C39.5782 31.8781 39.8306 31.3003 40.021 30.7047C40.2357 30.0327 40.7991 29.5306 41.4913 29.3943C43.9764 28.9051 46.5727 29.6373 48.436 31.3531L49.0965 31.9614L44.4976 36.5607ZM49.714 30.6228L49.3865 30.3212C48.4924 29.4979 47.4548 28.8673 46.3412 28.4482C46.6478 28.2033 46.9002 27.8896 47.0731 27.5234C47.4863 26.6473 47.3926 25.657 46.8224 24.874C46.6455 24.6313 46.4355 24.4262 46.2015 24.2623C46.1997 24.2585 46.1984 24.2547 46.1965 24.251L45.7192 23.3163L48.674 24.3679L50.3537 27.6258C50.8876 28.6619 50.5933 29.9181 49.714 30.6228Z" fill="white"/>
</svg>
