<svg width="68" height="68" viewBox="0 0 68 68" fill="none" xmlns="http://www.w3.org/2000/svg">
<circle cx="34" cy="34" r="34" fill="#172E5E"/>
<path d="M51.1895 34.9403C49.3642 33.1231 47.254 34.8239 47.254 34.8239V25.2577C47.254 24.9365 46.9936 24.6758 46.6724 24.6758C46.3508 24.6758 46.0905 24.9365 46.0905 25.2577V35.6425C46.0905 35.6425 43.3159 37.8297 42.1234 38.3643V21.14C42.1234 20.3393 42.7747 19.688 43.5754 19.688H44.6385C45.4392 19.688 46.0905 20.3393 46.0905 21.14V22.8756C46.0905 23.1972 46.3508 23.4575 46.6724 23.4575C46.9936 23.4575 47.254 23.1972 47.254 22.8756V21.14C47.254 19.6977 46.0808 18.5245 44.6385 18.5245H43.5754C42.1331 18.5245 40.9596 19.6977 40.9596 21.14V38.8256C40.6126 38.9229 40.2565 38.9889 39.8947 39.0238V26.7567C39.8947 25.3071 38.7154 24.1279 37.2662 24.1279H36.2288C34.7795 24.1279 33.6003 25.3071 33.6003 26.7567V32.6852L32.535 33.2507V31.2778C32.535 29.9728 31.4734 28.9111 30.1687 28.9111H28.6073C27.3023 28.9111 26.241 29.9728 26.241 31.2778V36.5917L24.3411 37.6L19.006 39.1247C18.0777 39.3899 17.3024 39.9978 16.8236 40.8361C16.3445 41.6747 16.2144 42.6512 16.4575 43.5855L17.0542 45.8815C17.1348 46.1925 17.4525 46.3788 17.7637 46.2982C18.0746 46.2173 18.2613 45.8997 18.1804 45.5885L17.5837 43.2927C17.2376 41.9611 18.0028 40.6215 19.326 40.2436L24.2038 38.8495L27.87 48.6343C28.1155 49.2895 28.0767 51.1588 26.1374 51.8476L22.4512 52.685C21.1665 52.9766 19.9006 52.2065 19.5691 50.9312L18.8208 48.0518C18.7399 47.7408 18.4223 47.5541 18.1113 47.6347C17.8001 47.7157 17.6137 48.0333 17.6943 48.3445L18.4429 51.2242C18.8635 52.842 20.3007 53.9109 21.9005 53.9109C23.0761 53.9109 26.3953 52.9823 26.3953 52.9823C27.4054 52.7532 28.2667 52.0986 28.758 51.187C29.1635 50.4348 29.2838 49.5692 29.1098 48.7446L41.8627 45.6224C42.9174 45.3639 43.9187 44.8629 44.7576 44.1735L50.9638 39.0741C52.8558 37.396 51.746 35.494 51.1895 34.9403ZM36.2288 25.2917H37.2662C38.0738 25.2917 38.7309 25.949 38.7309 26.7567V39.0529L35.0593 39.0514C34.722 39.0483 34.9553 38.8256 34.9738 38.8104L36.0312 37.954C37.0177 37.1548 37.662 36.0438 37.9459 34.6512C38.1263 33.7677 37.7893 32.8834 37.0671 32.3433C36.3924 31.839 35.5248 31.7421 34.7641 32.0754V26.7567C34.7641 25.949 35.4211 25.2917 36.2288 25.2917ZM27.4048 31.2778C27.4048 30.6147 27.9442 30.0749 28.6073 30.0749H30.1687C30.8318 30.0749 31.3716 30.6147 31.3716 31.2778V33.8684L27.4045 35.9741V31.2778H27.4048ZM50.2252 38.1752L44.0187 43.2746C43.3138 43.854 42.4725 44.275 41.5861 44.492L28.7392 47.6375L25.2842 38.4174L35.149 33.181C35.5499 32.968 36.0066 33.0034 36.37 33.2753C36.7334 33.5471 36.8964 33.9744 36.8058 34.4187C36.577 35.5398 36.07 36.425 35.2987 37.0496L34.2413 37.9064C33.8079 38.2573 33.6482 38.8238 33.8343 39.3496C34.0204 39.8751 34.501 40.2151 35.0587 40.2151L39.2982 40.217H39.3013C40.8105 40.217 42.261 39.7581 43.4957 38.8898L48.2338 35.5579C48.8972 35.0912 49.7903 35.1737 50.357 35.7537C50.6834 36.0871 51.3223 37.0778 50.2252 38.1752V38.1752Z" fill="white"/>
<path d="M25.6416 49.007C25.6416 47.743 24.6133 46.7144 23.3493 46.7144C22.0852 46.7144 21.0569 47.743 21.0569 49.007C21.0569 50.2708 22.0852 51.2994 23.3493 51.2994C24.6133 51.2994 25.6416 50.2708 25.6416 49.007V49.007ZM22.2207 49.007C22.2207 48.3845 22.7268 47.8781 23.3493 47.8781C23.9715 47.8781 24.4779 48.3845 24.4779 49.007C24.4779 49.6292 23.9718 50.1356 23.3493 50.1356C22.7268 50.1356 22.2207 49.6292 22.2207 49.007V49.007Z" fill="white"/>
<path d="M19.1647 32.4576L27.6233 23.9339L29.5259 24.918C30.2075 25.2704 31.037 25.1498 31.5898 24.6176L36.1939 20.1856C36.1939 20.1856 36.0672 22.4619 37.9841 22.4619C38.9709 22.4619 39.774 21.6588 39.774 20.6717V15.9779C39.774 15.9724 39.7737 15.9667 39.7737 15.9609C39.7673 14.7362 38.8718 14.188 37.9841 14.188H33.3312C32.3441 14.188 31.5413 14.9911 31.5413 15.9779C31.5413 17.9454 33.5436 17.7678 33.5436 17.7678L30.0311 21.1488L28.1009 20.1505C27.4029 19.7892 26.5619 19.9217 26.0079 20.4793L16.6239 29.9358C15.9286 30.6365 15.9329 31.7721 16.6336 32.4673C16.9712 32.8022 18.124 33.4983 19.1647 32.4576ZM17.4497 30.7556L26.8338 21.2991C26.955 21.1773 27.1496 20.9639 27.5663 21.1842L29.8668 22.3741C30.0884 22.4886 30.3581 22.4495 30.5378 22.2765L35.3905 17.6053C35.5614 17.4408 35.6154 17.1886 35.5266 16.9686C35.4378 16.7483 35.2244 16.6043 34.9868 16.6043H33.3312C32.986 16.6043 32.705 16.3234 32.705 15.9779C32.705 15.6327 32.986 15.3518 33.3312 15.3518H37.9841C38.1553 15.3518 38.6099 15.3518 38.6099 15.9742C38.6099 15.9794 38.6102 15.9846 38.6102 15.99V20.6717C38.6102 21.0169 38.3293 21.2979 37.9841 21.2979C37.6386 21.2979 37.3577 21.0169 37.3577 20.6717V18.8179C37.3577 18.5845 37.2183 18.3736 37.0037 18.2824C36.7891 18.1909 36.5406 18.2369 36.3724 18.3988L30.7827 23.7794C30.5893 23.9654 30.299 24.0079 30.0608 23.8845L27.7787 22.7041C27.553 22.5874 27.2775 22.6307 27.0984 22.8111L18.3389 31.6378C17.957 32.0197 17.5712 31.7584 17.453 31.6411C17.2082 31.3978 17.2066 31.0005 17.4497 30.7556V30.7556Z" fill="white"/>
</svg>
