<svg width="68" height="68" viewBox="0 0 68 68" fill="none" xmlns="http://www.w3.org/2000/svg">
<circle cx="34" cy="34" r="34" fill="#172E5E"/>
<path d="M51.4613 50.7723H42.4501C42.1588 48.1506 39.8685 46.1781 37.2425 46.2867C36.4928 45.6789 35.5843 45.2991 34.6251 45.1925V36.9822C35.6462 36.0612 36.9996 35.4494 38.1551 36.2266C36.8359 37.778 37.5214 39.7674 38.804 41.3734C40.5117 43.5118 44.8235 44.6572 45.2874 44.6572C45.4345 44.6572 45.5757 44.5995 45.6806 44.4965C45.7856 44.3935 45.8459 44.2533 45.8486 44.1063C45.852 43.9186 45.9122 39.4822 44.0663 37.1709C42.7265 35.4928 40.8625 34.4029 39.0378 35.4849C37.6877 34.3971 36.0863 34.5935 34.6253 35.5648C34.6242 30.0524 34.6253 29.5447 34.6253 24.3956C34.6253 22.8382 37.4069 19.9117 39.8459 22.8668C37.5147 23.264 35.7475 25.0892 35.7475 27.2753C35.7475 30.1342 38.6135 31.4325 41.4934 31.1734C41.6416 31.1601 41.7785 31.0884 41.8739 30.9741C41.9693 30.8599 42.0154 30.7124 42.002 30.5642C41.9887 30.4159 41.917 30.2791 41.8028 30.1837C41.6885 30.0883 41.5411 30.0421 41.3928 30.0555C40.2517 30.1583 38.8877 29.9745 37.9462 29.3133C35.9084 27.8822 36.8799 24.7224 39.7367 24.0339L38.6658 25.4619C38.5765 25.5809 38.5381 25.7306 38.5592 25.8779C38.5802 26.0253 38.6589 26.1582 38.778 26.2475C38.8971 26.3368 39.0468 26.3752 39.1941 26.3541C39.3415 26.3331 39.4744 26.2544 39.5637 26.1353L40.2372 25.2374V26.3598C40.2372 26.5086 40.2963 26.6514 40.4015 26.7566C40.5068 26.8619 40.6495 26.921 40.7984 26.921C40.9472 26.921 41.09 26.8619 41.1952 26.7566C41.3004 26.6514 41.3596 26.5086 41.3596 26.3598V25.2374C41.9386 25.9199 42.0254 26.3598 42.4824 26.3598C42.5865 26.3595 42.6885 26.3303 42.7769 26.2754C42.8654 26.2205 42.9368 26.1421 42.9833 26.049C43.0299 25.9559 43.0496 25.8517 43.0403 25.748C43.0311 25.6443 42.9932 25.5453 42.931 25.4619L41.86 24.0339C44.0878 24.5709 45.1526 26.5809 44.5787 28.1464C44.553 28.2157 44.5412 28.2893 44.5441 28.3632C44.5469 28.437 44.5643 28.5096 44.5952 28.5767C44.6262 28.6438 44.6701 28.7041 44.7244 28.7542C44.7787 28.8043 44.8424 28.8432 44.9118 28.8686C44.9812 28.894 45.0549 28.9055 45.1287 28.9024C45.2025 28.8992 45.275 28.8816 45.342 28.8503C45.409 28.8191 45.4691 28.775 45.519 28.7204C45.5689 28.6659 45.6075 28.6021 45.6326 28.5326C46.5516 26.0244 44.5439 23.0214 41.175 22.7993C39.7017 20.3608 36.8068 19.5123 34.6251 21.8745V18.7835C34.6251 18.6346 34.566 18.4919 34.4607 18.3866C34.3555 18.2814 34.2127 18.2223 34.0639 18.2223C33.915 18.2223 33.7723 18.2814 33.667 18.3866C33.5618 18.4919 33.5027 18.6346 33.5027 18.7835V20.705C32.5403 19.1242 31.0928 18.2694 29.3026 18.2244C27.4525 16.9349 25.4798 17.9973 24.0615 19.7735C22.2154 22.0848 22.2758 26.5211 22.2792 26.7089C22.2807 26.7913 22.3004 26.8725 22.3369 26.9465C22.3733 27.0205 22.4256 27.0856 22.4901 27.1371C22.5546 27.1885 22.6296 27.2252 22.7098 27.2444C22.7901 27.2635 22.8736 27.2648 22.9543 27.248C23.1382 27.2099 27.478 26.2873 29.3241 23.976C30.3596 22.6792 31.1031 21.0452 30.4244 19.539C32.9009 20.3509 33.5027 23.4932 33.5027 24.6979V27.2431C31.0825 27.5808 27.8599 29.936 26.9546 31.7047C20.7839 32.1093 20.3237 40.7401 28.0031 40.0807C28.0765 40.0744 28.148 40.0537 28.2134 40.0197C28.2789 39.9858 28.337 39.9393 28.3844 39.883C28.4319 39.8266 28.4678 39.7614 28.4901 39.6911C28.5123 39.6209 28.5206 39.5469 28.5143 39.4735C28.508 39.4001 28.4873 39.3286 28.4533 39.2632C28.4194 39.1977 28.3729 39.1396 28.3165 39.0922C28.2601 39.0447 28.195 39.0088 28.1247 38.9865C28.0545 38.9643 27.9805 38.956 27.9071 38.9623C22.3401 39.4401 22.1712 34.1227 26.0737 32.991L25.1968 34.1606C25.1075 34.2796 25.0691 34.4293 25.0902 34.5767C25.1112 34.724 25.19 34.857 25.309 34.9463C25.4281 35.0356 25.5778 35.0739 25.7251 35.0529C25.8725 35.0318 26.0054 34.9531 26.0947 34.834L26.7682 33.9361V35.0585C26.7682 35.2073 26.8273 35.3501 26.9325 35.4553C27.0378 35.5606 27.1805 35.6197 27.3294 35.6197C27.4782 35.6197 27.621 35.5606 27.7262 35.4553C27.8315 35.3501 27.8906 35.2073 27.8906 35.0585V33.9361L28.564 34.834C28.6083 34.893 28.6637 34.9427 28.7271 34.9802C28.7905 35.0178 28.8607 35.0424 28.9336 35.0529C29.0066 35.0633 29.0809 35.0592 29.1523 35.0409C29.2237 35.0227 29.2908 34.9905 29.3497 34.9463C29.4087 34.902 29.4584 34.8466 29.4959 34.7832C29.5335 34.7198 29.5581 34.6496 29.5686 34.5767C29.579 34.5037 29.5749 34.4294 29.5567 34.358C29.5384 34.2866 29.5062 34.2195 29.462 34.1606L28.5851 32.991C30.7337 33.614 31.6787 35.6058 31.0935 37.0953C31.0402 37.2335 31.0438 37.3873 31.1035 37.5229C31.1632 37.6585 31.274 37.7651 31.4119 37.8192C31.5498 37.8734 31.7036 37.8709 31.8396 37.8122C31.9756 37.7535 32.0829 37.6433 32.1381 37.5058C33.0585 35.1646 31.3664 32.2708 28.2346 31.7648C29.2027 30.4546 31.6358 28.6948 33.5029 28.3751V45.1925C32.5437 45.2992 31.6352 45.679 30.8855 46.2869C28.2604 46.1784 25.9694 48.1495 25.678 50.7725H16.6664C16.5176 50.7725 16.3748 50.8317 16.2696 50.9369C16.1644 51.0422 16.1052 51.1849 16.1052 51.3337C16.1052 51.4826 16.1644 51.6253 16.2696 51.7306C16.3748 51.8358 16.5176 51.8949 16.6664 51.8949H51.4613C51.6102 51.8949 51.7529 51.8358 51.8581 51.7306C51.9634 51.6253 52.0225 51.4826 52.0225 51.3337C52.0225 51.1849 51.9634 51.0422 51.8581 50.9369C51.7529 50.8317 51.6102 50.7725 51.4613 50.7725V50.7723ZM39.3339 36.641C40.6754 35.5697 42.1166 36.528 43.1892 37.8713C44.3818 39.3651 44.6508 42.085 44.7102 43.3732C43.467 43.0303 40.8739 42.1666 39.681 40.673C38.6084 39.3298 37.9923 37.7125 39.3339 36.641ZM28.4465 23.2755C27.2539 24.7693 24.6603 25.6326 23.4173 25.9757C23.4767 24.6875 23.7453 21.9676 24.9382 20.4738C26.0159 19.1243 27.4559 18.1753 28.7936 19.2435C30.1371 20.3162 29.5172 21.9351 28.4467 23.2755H28.4465ZM26.8089 50.7723C26.9528 49.7811 27.4697 48.8821 28.2541 48.2591C29.0384 47.6361 30.031 47.3361 31.0291 47.4202C31.1052 47.4268 31.1817 47.4177 31.2541 47.3936C31.3265 47.3695 31.3932 47.3308 31.45 47.2799C32.1694 46.6378 33.1 46.2829 34.0642 46.2829C35.0285 46.2829 35.959 46.6378 36.6784 47.2799C36.9081 47.4851 37.1115 47.4051 37.4311 47.4051C38.3754 47.4063 39.2877 47.7472 40.0015 48.3654C40.7152 48.9836 41.1828 49.8379 41.3188 50.7723H26.8089Z" fill="white"/>
<path d="M37.9924 48.5275H36.3088C36.1599 48.5275 36.0172 48.5866 35.9119 48.6919C35.8067 48.7971 35.7476 48.9399 35.7476 49.0887C35.7476 49.2375 35.8067 49.3803 35.9119 49.4855C36.0172 49.5908 36.1599 49.6499 36.3088 49.6499H37.9924C38.1412 49.6499 38.284 49.5908 38.3892 49.4855C38.4945 49.3803 38.5536 49.2375 38.5536 49.0887C38.5536 48.9399 38.4945 48.7971 38.3892 48.6919C38.284 48.5866 38.1412 48.5275 37.9924 48.5275Z" fill="white"/>
<path d="M31.819 48.5275H30.1354C29.9866 48.5275 29.8438 48.5866 29.7386 48.6919C29.6333 48.7971 29.5742 48.9399 29.5742 49.0887C29.5742 49.2375 29.6333 49.3803 29.7386 49.4855C29.8438 49.5908 29.9866 49.6499 30.1354 49.6499H31.819C31.9679 49.6499 32.1106 49.5908 32.2159 49.4855C32.3211 49.3803 32.3803 49.2375 32.3803 49.0887C32.3803 48.9399 32.3211 48.7971 32.2159 48.6919C32.1106 48.5866 31.9679 48.5275 31.819 48.5275Z" fill="white"/>
<path d="M25.3205 30.776C25.3907 30.7984 25.4647 30.8067 25.5381 30.8004C25.6115 30.7942 25.683 30.7736 25.7485 30.7398C25.814 30.7059 25.8721 30.6595 25.9196 30.6032C25.9672 30.5469 26.0031 30.4817 26.0255 30.4115C26.0479 30.3413 26.0562 30.2673 26.05 30.1939C26.0437 30.1205 26.0231 30.049 25.9893 29.9835C25.9554 29.918 25.909 29.8599 25.8527 29.8123C25.7964 29.7648 25.7312 29.7288 25.661 29.7065C22.556 28.718 18.9113 30.6862 18.9113 33.9361C18.9032 34.4724 19.0193 35.0034 19.2504 35.4874C19.4816 35.9714 19.8215 36.3954 20.2437 36.7263C20.8137 37.1867 21.5306 36.3227 20.9488 35.853C20.657 35.6273 20.4223 35.3363 20.2633 35.0034C20.1044 34.6705 20.0258 34.3049 20.0337 33.9361C20.0337 31.4808 22.9208 30.0118 25.3205 30.776Z" fill="white"/>
<path d="M47.1793 26.9472C47.0653 27.0412 46.9929 27.1764 46.978 27.3234C46.963 27.4704 47.0067 27.6174 47.0994 27.7324C47.1922 27.8474 47.3265 27.9212 47.4734 27.9378C47.6202 27.9544 47.7677 27.9124 47.8837 27.8209C49.2482 26.7204 49.5055 24.9958 48.9324 23.5422C48.8778 23.4037 48.7704 23.2926 48.6339 23.2333C48.4974 23.174 48.3429 23.1714 48.2044 23.226C48.0659 23.2806 47.9548 23.388 47.8955 23.5245C47.8362 23.661 47.8336 23.8155 47.8882 23.954C48.2882 24.9673 48.1489 26.1653 47.1793 26.9472Z" fill="white"/>
<path d="M18.9157 22.8854C19.6371 23.0689 20.8572 23.2473 21.0178 23.2473C21.7172 23.2473 21.7804 22.2109 21.0828 22.1286C20.6198 22.0741 20.2091 22.0061 19.8895 21.9462C23.2825 15.7356 25.9927 17.9574 25.7728 16.5008C25.7506 16.3537 25.6709 16.2214 25.5512 16.133C25.4315 16.0447 25.2816 16.0074 25.1344 16.0296C24.4602 16.1432 23.8061 16.3542 23.1926 16.656C20.5189 17.9218 18.625 21.9343 18.5457 22.1044C18.5109 22.1792 18.4929 22.2608 18.4932 22.3433C18.4934 22.4258 18.5119 22.5073 18.5472 22.5818C18.5825 22.6564 18.6339 22.7223 18.6976 22.7747C18.7613 22.8272 18.8357 22.865 18.9157 22.8854V22.8854Z" fill="white"/>
<path d="M39.9958 20.1175C40.1118 20.2107 40.2601 20.254 40.408 20.2379C40.556 20.2218 40.6915 20.1476 40.7847 20.0315C41.1795 19.5405 41.7901 19.0968 42.5994 18.7133C44.4035 17.8592 47.2796 18.319 48.5687 18.5924C48.0505 19.5943 46.9004 21.5821 45.4414 22.6745C45.382 22.7185 45.3318 22.7738 45.2939 22.8373C45.2559 22.9007 45.2309 22.971 45.2202 23.0442C45.2095 23.1173 45.2134 23.1919 45.2316 23.2635C45.2498 23.3352 45.2819 23.4025 45.3262 23.4617C45.3705 23.5209 45.4261 23.5707 45.4897 23.6084C45.5534 23.646 45.6238 23.6707 45.697 23.6811C45.7702 23.6914 45.8448 23.6872 45.9163 23.6686C45.9879 23.6501 46.0551 23.6176 46.114 23.573C48.347 21.9011 49.8325 18.575 49.8947 18.4342C49.9272 18.3605 49.9435 18.2807 49.9424 18.2001C49.9414 18.1195 49.923 18.0402 49.8885 17.9673C49.854 17.8945 49.8043 17.83 49.7426 17.7781C49.681 17.7263 49.6089 17.6883 49.5312 17.6667C49.3418 17.6143 44.8677 16.3976 42.1189 17.699C41.1549 18.1558 40.4117 18.704 39.9099 19.3285C39.8167 19.4445 39.7733 19.5928 39.7894 19.7408C39.8055 19.8887 39.8797 20.0242 39.9958 20.1175V20.1175Z" fill="white"/>
<path d="M46.5532 40.149C46.5618 40.2222 46.5847 40.293 46.6207 40.3573C46.6567 40.4216 46.705 40.4783 46.7628 40.5239C46.8207 40.5696 46.887 40.6034 46.9579 40.6235C47.0288 40.6435 47.103 40.6494 47.1762 40.6408C47.8614 40.5626 48.5413 40.4431 49.2121 40.283C49.2921 40.2626 49.3665 40.2248 49.4302 40.1724C49.4939 40.1199 49.5452 40.054 49.5805 39.9795C49.6158 39.9049 49.6343 39.8235 49.6345 39.741C49.6348 39.6585 49.6169 39.5769 49.582 39.5021C49.5027 39.332 47.6089 35.3195 44.9356 34.0535C44.3221 33.7516 43.6679 33.5405 42.9936 33.4269C42.8464 33.4048 42.6965 33.442 42.5768 33.5304C42.4571 33.6188 42.3774 33.7511 42.3552 33.8982C42.1377 35.3396 44.8587 33.1665 48.2379 39.3437C47.9185 39.4039 47.5078 39.4718 47.0454 39.5261C46.9721 39.5347 46.9013 39.5576 46.837 39.5936C46.7726 39.6295 46.7159 39.6778 46.6702 39.7356C46.6245 39.7934 46.5907 39.8597 46.5706 39.9307C46.5505 40.0016 46.5446 40.0758 46.5532 40.149V40.149Z" fill="white"/>
<path d="M34.0639 17.0999C34.3738 17.0999 34.6251 16.8486 34.6251 16.5387C34.6251 16.2287 34.3738 15.9774 34.0639 15.9774C33.7539 15.9774 33.5027 16.2287 33.5027 16.5387C33.5027 16.8486 33.7539 17.0999 34.0639 17.0999Z" fill="white"/>
<path d="M43.6044 30.5688C43.9144 30.5688 44.1656 30.3176 44.1656 30.0076C44.1656 29.6977 43.9144 29.4464 43.6044 29.4464C43.2945 29.4464 43.0432 29.6977 43.0432 30.0076C43.0432 30.3176 43.2945 30.5688 43.6044 30.5688Z" fill="white"/>
<path d="M30.1354 39.5482C30.4454 39.5482 30.6966 39.2969 30.6966 38.987C30.6966 38.677 30.4454 38.4258 30.1354 38.4258C29.8255 38.4258 29.5742 38.677 29.5742 38.987C29.5742 39.2969 29.8255 39.5482 30.1354 39.5482Z" fill="white"/>
</svg>
